<svg xmlns="http://www.w3.org/2000/svg" viewBox="0 0 1100 580" role="img" aria-label="Speculative Ghia brand strategy visual">
  <rect width="1100" height="580" fill="#f5efe6"/>
  <path d="M0 0h1100v580H0z" fill="#f5efe6"/>
  <path d="M738 0c114 116 163 241 148 374-13 111-66 180-109 206H1100V0H738z" fill="#dfc9b3" opacity=".7"/>
  <path d="M0 474c127-78 276-120 446-126 173-6 315 23 427 88 46 27 86 60 121 100H0v-62z" fill="#c65f2d" opacity=".16"/>
  <rect x="76" y="74" width="948" height="432" fill="none" stroke="#d6c6b4" stroke-width="2"/>
  <text x="112" y="128" font-family="Arial, sans-serif" font-size="22" letter-spacing="10" fill="#b9572b">SPECULATIVE CASE STUDY</text>
  <text x="112" y="202" font-family="Georgia, serif" font-size="82" font-weight="600" fill="#201d19">Ghia</text>
  <text x="112" y="246" font-family="Arial, sans-serif" font-size="28" fill="#6e675f">from discovery to ritual</text>
  <g transform="translate(160 292)">
    <rect x="0" y="0" width="132" height="126" rx="66" fill="#fffaf4" stroke="#8e6a4e" stroke-width="3"/>
    <rect x="42" y="28" width="48" height="78" rx="24" fill="#8e6a4e" opacity=".28"/>
    <path d="M20 104c34-16 70-16 108 0" fill="none" stroke="#c65f2d" stroke-width="5" stroke-linecap="round"/>
  </g>
  <g fill="#201d19" font-family="Arial, sans-serif">
    <text x="390" y="316" font-size="20" letter-spacing="4" fill="#b9572b">01 SOCIAL</text>
    <text x="390" y="352" font-size="34" font-family="Georgia, serif">Show the ritual</text>
    <text x="390" y="386" font-size="19" fill="#6e675f">Recipes, hosting, founder voice, short-form video.</text>
    <text x="390" y="444" font-size="20" letter-spacing="4" fill="#b9572b">02 CREATOR</text>
    <text x="390" y="480" font-size="34" font-family="Georgia, serif">Seed the behavior</text>
  </g>
  <g transform="translate(768 186)">
    <rect x="0" y="0" width="210" height="250" fill="#201d19"/>
    <text x="28" y="58" font-family="Arial, sans-serif" font-size="18" letter-spacing="4" fill="#dfc9b3">GROWTH JOBS</text>
    <path d="M28 86h154" stroke="#6d5b4a" stroke-width="2"/>
    <text x="28" y="132" font-family="Georgia, serif" font-size="46" font-weight="600" fill="#fffaf4">Trial</text>
    <text x="28" y="178" font-family="Georgia, serif" font-size="46" font-weight="600" fill="#fffaf4">Clarity</text>
    <text x="28" y="224" font-family="Georgia, serif" font-size="46" font-weight="600" fill="#fffaf4">Repeat</text>
  </g>
</svg>
